<svg xmlns="http://www.w3.org/2000/svg" viewBox="0 0 64 64">
  <rect width="64" height="64" rx="14" fill="#10233f" />
  <path d="M18 18h17c7 0 12 3.8 12 10 0 4.2-2.3 7.1-6 8.6 4.6 1.3 7.4 4.6 7.4 9.4 0 7.2-5.8 11-14.2 11H18V18zm14.7 15.3c3.6 0 5.7-1.5 5.7-4.4 0-2.7-2.1-4.1-5.7-4.1h-5.4v8.5h5.4zm1 16c4.1 0 6.5-1.6 6.5-4.8s-2.4-4.8-6.5-4.8h-6.4v9.6h6.4z" fill="#f4f7fb" />
  <path d="M50 18v28.5c0 7-4.4 10.8-11.8 10.8-4 0-7.6-1.1-10.5-3.1l3.2-6.2c1.9 1.3 4.1 2.1 6.2 2.1 2.7 0 4.2-1.2 4.2-4V18H50z" fill="#67b7ff" opacity=".9" />
</svg>
